<mxfile host="Electron" agent="Mozilla/5.0 (Windows NT 10.0; Win64; x64) AppleWebKit/537.36 (KHTML, like Gecko) draw.io/26.0.9 Chrome/128.0.6613.186 Electron/32.2.5 Safari/537.36" version="26.0.9">
  <diagram name="Page-1" id="dM1VX_bRIBqYVcTAixvD">
    <mxGraphModel dx="868" dy="464" grid="0" gridSize="10" guides="1" tooltips="1" connect="1" arrows="1" fold="1" page="1" pageScale="1" pageWidth="850" pageHeight="1100" math="1" shadow="0">
      <root>
        <mxCell id="0" />
        <mxCell id="1" parent="0" />
        <mxCell id="P2xz3JzIOTPGkaxV-it4-52" value="Plant" style="rounded=1;arcSize=10;dashed=1;strokeColor=#F59D56;fillColor=none;gradientColor=none;dashPattern=8 4;strokeWidth=2;fontStyle=1;align=left;verticalAlign=bottom;" parent="1" vertex="1">
          <mxGeometry x="426" y="198" width="310" height="120" as="geometry" />
        </mxCell>
        <mxCell id="P2xz3JzIOTPGkaxV-it4-53" value="Observer" style="rounded=1;arcSize=10;dashed=1;dashPattern=8 4;strokeWidth=2;fontStyle=1;align=left;verticalAlign=bottom;strokeColor=light-dark(#8b4b4b, #ededed);fillColor=none;" parent="1" vertex="1">
          <mxGeometry x="423.5" y="328" width="342.5" height="170" as="geometry" />
        </mxCell>
        <mxCell id="P2xz3JzIOTPGkaxV-it4-1" value="$$y_d$$" style="text;html=1;align=center;verticalAlign=middle;whiteSpace=wrap;rounded=0;" parent="1" vertex="1">
          <mxGeometry x="38" y="213" width="30" height="30" as="geometry" />
        </mxCell>
        <mxCell id="P2xz3JzIOTPGkaxV-it4-2" value="" style="endArrow=classic;html=1;rounded=0;exitX=1;exitY=0.5;exitDx=0;exitDy=0;" parent="1" source="2ekrf1Ir_0dS1Xj5fFay-3" target="P2xz3JzIOTPGkaxV-it4-3" edge="1">
          <mxGeometry width="50" height="50" relative="1" as="geometry">
            <mxPoint x="392" y="303" as="sourcePoint" />
            <mxPoint x="362" y="228" as="targetPoint" />
          </mxGeometry>
        </mxCell>
        <mxCell id="P2xz3JzIOTPGkaxV-it4-48" style="edgeStyle=orthogonalEdgeStyle;rounded=0;orthogonalLoop=1;jettySize=auto;html=1;exitX=1;exitY=0.5;exitDx=0;exitDy=0;entryX=0;entryY=0.5;entryDx=0;entryDy=0;" parent="1" source="P2xz3JzIOTPGkaxV-it4-3" target="P2xz3JzIOTPGkaxV-it4-23" edge="1">
          <mxGeometry relative="1" as="geometry" />
        </mxCell>
        <mxCell id="P2xz3JzIOTPGkaxV-it4-3" value="" style="ellipse;whiteSpace=wrap;html=1;aspect=fixed;" parent="1" vertex="1">
          <mxGeometry x="342" y="216.75" width="22.5" height="22.5" as="geometry" />
        </mxCell>
        <mxCell id="P2xz3JzIOTPGkaxV-it4-4" value="" style="endArrow=classic;html=1;rounded=0;exitX=1;exitY=0.5;exitDx=0;exitDy=0;entryX=0;entryY=0.5;entryDx=0;entryDy=0;" parent="1" source="P2xz3JzIOTPGkaxV-it4-3" target="P2xz3JzIOTPGkaxV-it4-5" edge="1">
          <mxGeometry width="50" height="50" relative="1" as="geometry">
            <mxPoint x="346" y="303" as="sourcePoint" />
            <mxPoint x="436" y="228" as="targetPoint" />
          </mxGeometry>
        </mxCell>
        <mxCell id="P2xz3JzIOTPGkaxV-it4-7" value="" style="edgeStyle=orthogonalEdgeStyle;rounded=0;orthogonalLoop=1;jettySize=auto;html=1;" parent="1" source="P2xz3JzIOTPGkaxV-it4-5" target="P2xz3JzIOTPGkaxV-it4-6" edge="1">
          <mxGeometry relative="1" as="geometry" />
        </mxCell>
        <mxCell id="P2xz3JzIOTPGkaxV-it4-5" value="H" style="whiteSpace=wrap;html=1;aspect=fixed;" parent="1" vertex="1">
          <mxGeometry x="446" y="213" width="30" height="30" as="geometry" />
        </mxCell>
        <mxCell id="P2xz3JzIOTPGkaxV-it4-10" value="" style="edgeStyle=orthogonalEdgeStyle;rounded=0;orthogonalLoop=1;jettySize=auto;html=1;" parent="1" source="P2xz3JzIOTPGkaxV-it4-6" target="P2xz3JzIOTPGkaxV-it4-9" edge="1">
          <mxGeometry relative="1" as="geometry" />
        </mxCell>
        <mxCell id="P2xz3JzIOTPGkaxV-it4-6" value="" style="ellipse;whiteSpace=wrap;html=1;aspect=fixed;" parent="1" vertex="1">
          <mxGeometry x="526" y="216.75" width="22.5" height="22.5" as="geometry" />
        </mxCell>
        <mxCell id="P2xz3JzIOTPGkaxV-it4-17" style="edgeStyle=orthogonalEdgeStyle;rounded=0;orthogonalLoop=1;jettySize=auto;html=1;exitX=0.5;exitY=0;exitDx=0;exitDy=0;" parent="1" source="P2xz3JzIOTPGkaxV-it4-8" edge="1">
          <mxGeometry relative="1" as="geometry">
            <mxPoint x="706.2857142857142" y="228" as="targetPoint" />
          </mxGeometry>
        </mxCell>
        <mxCell id="P2xz3JzIOTPGkaxV-it4-21" style="edgeStyle=orthogonalEdgeStyle;rounded=0;orthogonalLoop=1;jettySize=auto;html=1;exitX=0.5;exitY=0;exitDx=0;exitDy=0;" parent="1" source="P2xz3JzIOTPGkaxV-it4-8" edge="1">
          <mxGeometry relative="1" as="geometry">
            <mxPoint x="776" y="227.79310344827593" as="targetPoint" />
          </mxGeometry>
        </mxCell>
        <mxCell id="P2xz3JzIOTPGkaxV-it4-8" value="C" style="whiteSpace=wrap;html=1;aspect=fixed;direction=south;" parent="1" vertex="1">
          <mxGeometry x="676" y="213" width="30" height="30" as="geometry" />
        </mxCell>
        <mxCell id="P2xz3JzIOTPGkaxV-it4-11" value="" style="edgeStyle=orthogonalEdgeStyle;rounded=0;orthogonalLoop=1;jettySize=auto;html=1;" parent="1" source="P2xz3JzIOTPGkaxV-it4-9" target="P2xz3JzIOTPGkaxV-it4-8" edge="1">
          <mxGeometry relative="1" as="geometry" />
        </mxCell>
        <mxCell id="P2xz3JzIOTPGkaxV-it4-9" value="Z&lt;sup&gt;-1&lt;/sup&gt;" style="triangle;whiteSpace=wrap;html=1;align=left;" parent="1" vertex="1">
          <mxGeometry x="586" y="208" width="40" height="40" as="geometry" />
        </mxCell>
        <mxCell id="P2xz3JzIOTPGkaxV-it4-12" value="G" style="whiteSpace=wrap;html=1;aspect=fixed;" parent="1" vertex="1">
          <mxGeometry x="586" y="283" width="30" height="30" as="geometry" />
        </mxCell>
        <mxCell id="P2xz3JzIOTPGkaxV-it4-14" value="" style="edgeStyle=orthogonalEdgeStyle;rounded=0;orthogonalLoop=1;jettySize=auto;html=1;entryX=1;entryY=0.5;entryDx=0;entryDy=0;exitX=1;exitY=0.5;exitDx=0;exitDy=0;" parent="1" source="P2xz3JzIOTPGkaxV-it4-8" target="P2xz3JzIOTPGkaxV-it4-12" edge="1">
          <mxGeometry relative="1" as="geometry">
            <mxPoint x="656" y="313" as="sourcePoint" />
            <mxPoint x="706" y="313" as="targetPoint" />
            <Array as="points">
              <mxPoint x="691" y="298" />
            </Array>
          </mxGeometry>
        </mxCell>
        <mxCell id="P2xz3JzIOTPGkaxV-it4-15" value="" style="edgeStyle=orthogonalEdgeStyle;rounded=0;orthogonalLoop=1;jettySize=auto;html=1;entryX=0.5;entryY=1;entryDx=0;entryDy=0;exitX=0;exitY=0.5;exitDx=0;exitDy=0;" parent="1" source="P2xz3JzIOTPGkaxV-it4-12" target="P2xz3JzIOTPGkaxV-it4-6" edge="1">
          <mxGeometry relative="1" as="geometry">
            <mxPoint x="701" y="308" as="sourcePoint" />
            <mxPoint x="626" y="308" as="targetPoint" />
            <Array as="points">
              <mxPoint x="537" y="298" />
            </Array>
          </mxGeometry>
        </mxCell>
        <mxCell id="P2xz3JzIOTPGkaxV-it4-19" value="$$\hat{y}$$" style="text;html=1;align=center;verticalAlign=middle;whiteSpace=wrap;rounded=0;" parent="1" vertex="1">
          <mxGeometry x="1450" y="710" width="20" height="20" as="geometry" />
        </mxCell>
        <mxCell id="P2xz3JzIOTPGkaxV-it4-22" value="" style="edgeStyle=orthogonalEdgeStyle;rounded=0;orthogonalLoop=1;jettySize=auto;html=1;" parent="1" source="P2xz3JzIOTPGkaxV-it4-23" target="P2xz3JzIOTPGkaxV-it4-25" edge="1">
          <mxGeometry relative="1" as="geometry" />
        </mxCell>
        <mxCell id="P2xz3JzIOTPGkaxV-it4-23" value="H" style="whiteSpace=wrap;html=1;aspect=fixed;" parent="1" vertex="1">
          <mxGeometry x="446" y="393" width="30" height="30" as="geometry" />
        </mxCell>
        <mxCell id="P2xz3JzIOTPGkaxV-it4-24" value="" style="edgeStyle=orthogonalEdgeStyle;rounded=0;orthogonalLoop=1;jettySize=auto;html=1;" parent="1" source="P2xz3JzIOTPGkaxV-it4-25" target="P2xz3JzIOTPGkaxV-it4-29" edge="1">
          <mxGeometry relative="1" as="geometry" />
        </mxCell>
        <mxCell id="P2xz3JzIOTPGkaxV-it4-25" value="" style="ellipse;whiteSpace=wrap;html=1;aspect=fixed;" parent="1" vertex="1">
          <mxGeometry x="526" y="396.75" width="22.5" height="22.5" as="geometry" />
        </mxCell>
        <mxCell id="P2xz3JzIOTPGkaxV-it4-26" style="edgeStyle=orthogonalEdgeStyle;rounded=0;orthogonalLoop=1;jettySize=auto;html=1;exitX=0.5;exitY=0;exitDx=0;exitDy=0;" parent="1" source="P2xz3JzIOTPGkaxV-it4-27" edge="1">
          <mxGeometry relative="1" as="geometry">
            <mxPoint x="706.2857142857142" y="408" as="targetPoint" />
          </mxGeometry>
        </mxCell>
        <mxCell id="P2xz3JzIOTPGkaxV-it4-38" style="edgeStyle=orthogonalEdgeStyle;rounded=0;orthogonalLoop=1;jettySize=auto;html=1;exitX=0.5;exitY=0;exitDx=0;exitDy=0;entryX=0.5;entryY=1;entryDx=0;entryDy=0;" parent="1" source="P2xz3JzIOTPGkaxV-it4-27" target="P2xz3JzIOTPGkaxV-it4-34" edge="1">
          <mxGeometry relative="1" as="geometry" />
        </mxCell>
        <mxCell id="2ekrf1Ir_0dS1Xj5fFay-16" value="_" style="edgeLabel;html=1;align=center;verticalAlign=middle;resizable=0;points=[];" vertex="1" connectable="0" parent="P2xz3JzIOTPGkaxV-it4-38">
          <mxGeometry x="0.7928" y="-1" relative="1" as="geometry">
            <mxPoint x="10" y="-5" as="offset" />
          </mxGeometry>
        </mxCell>
        <mxCell id="P2xz3JzIOTPGkaxV-it4-39" style="edgeStyle=orthogonalEdgeStyle;rounded=0;orthogonalLoop=1;jettySize=auto;html=1;exitX=0.5;exitY=0;exitDx=0;exitDy=0;" parent="1" source="P2xz3JzIOTPGkaxV-it4-27" edge="1">
          <mxGeometry relative="1" as="geometry">
            <mxPoint x="806" y="408" as="targetPoint" />
          </mxGeometry>
        </mxCell>
        <mxCell id="2ekrf1Ir_0dS1Xj5fFay-14" style="edgeStyle=orthogonalEdgeStyle;rounded=0;orthogonalLoop=1;jettySize=auto;html=1;exitX=0.5;exitY=0;exitDx=0;exitDy=0;entryX=0.5;entryY=1;entryDx=0;entryDy=0;" edge="1" parent="1" source="2ekrf1Ir_0dS1Xj5fFay-18" target="2ekrf1Ir_0dS1Xj5fFay-1">
          <mxGeometry relative="1" as="geometry">
            <Array as="points" />
          </mxGeometry>
        </mxCell>
        <mxCell id="2ekrf1Ir_0dS1Xj5fFay-15" value="_" style="edgeLabel;html=1;align=center;verticalAlign=middle;resizable=0;points=[];" vertex="1" connectable="0" parent="2ekrf1Ir_0dS1Xj5fFay-14">
          <mxGeometry x="0.9876" y="1" relative="1" as="geometry">
            <mxPoint x="-10" y="-1" as="offset" />
          </mxGeometry>
        </mxCell>
        <mxCell id="P2xz3JzIOTPGkaxV-it4-27" value="C" style="whiteSpace=wrap;html=1;aspect=fixed;direction=south;" parent="1" vertex="1">
          <mxGeometry x="676" y="393" width="30" height="30" as="geometry" />
        </mxCell>
        <mxCell id="P2xz3JzIOTPGkaxV-it4-29" value="Z&lt;sup&gt;-1&lt;/sup&gt;" style="triangle;whiteSpace=wrap;html=1;align=left;" parent="1" vertex="1">
          <mxGeometry x="586" y="388" width="40" height="40" as="geometry" />
        </mxCell>
        <mxCell id="P2xz3JzIOTPGkaxV-it4-30" value="G" style="whiteSpace=wrap;html=1;aspect=fixed;" parent="1" vertex="1">
          <mxGeometry x="586" y="463" width="30" height="30" as="geometry" />
        </mxCell>
        <mxCell id="P2xz3JzIOTPGkaxV-it4-31" value="" style="edgeStyle=orthogonalEdgeStyle;rounded=0;orthogonalLoop=1;jettySize=auto;html=1;entryX=1;entryY=0.5;entryDx=0;entryDy=0;" parent="1" target="P2xz3JzIOTPGkaxV-it4-30" edge="1">
          <mxGeometry relative="1" as="geometry">
            <mxPoint x="656" y="408" as="sourcePoint" />
            <mxPoint x="706" y="493" as="targetPoint" />
            <Array as="points">
              <mxPoint x="656" y="478" />
            </Array>
          </mxGeometry>
        </mxCell>
        <mxCell id="P2xz3JzIOTPGkaxV-it4-32" value="" style="edgeStyle=orthogonalEdgeStyle;rounded=0;orthogonalLoop=1;jettySize=auto;html=1;entryX=0.5;entryY=1;entryDx=0;entryDy=0;exitX=0;exitY=0.5;exitDx=0;exitDy=0;" parent="1" source="P2xz3JzIOTPGkaxV-it4-30" target="P2xz3JzIOTPGkaxV-it4-25" edge="1">
          <mxGeometry relative="1" as="geometry">
            <mxPoint x="701" y="488" as="sourcePoint" />
            <mxPoint x="626" y="488" as="targetPoint" />
            <Array as="points">
              <mxPoint x="537" y="478" />
            </Array>
          </mxGeometry>
        </mxCell>
        <mxCell id="P2xz3JzIOTPGkaxV-it4-37" style="edgeStyle=orthogonalEdgeStyle;rounded=0;orthogonalLoop=1;jettySize=auto;html=1;exitX=0;exitY=0.5;exitDx=0;exitDy=0;entryX=0.5;entryY=0;entryDx=0;entryDy=0;" parent="1" source="P2xz3JzIOTPGkaxV-it4-33" target="P2xz3JzIOTPGkaxV-it4-25" edge="1">
          <mxGeometry relative="1" as="geometry" />
        </mxCell>
        <mxCell id="P2xz3JzIOTPGkaxV-it4-33" value="L" style="whiteSpace=wrap;html=1;aspect=fixed;" parent="1" vertex="1">
          <mxGeometry x="586" y="338" width="30" height="30" as="geometry" />
        </mxCell>
        <mxCell id="P2xz3JzIOTPGkaxV-it4-35" value="" style="edgeStyle=orthogonalEdgeStyle;rounded=0;orthogonalLoop=1;jettySize=auto;html=1;startArrow=classic;startFill=1;endArrow=none;" parent="1" source="P2xz3JzIOTPGkaxV-it4-34" edge="1">
          <mxGeometry relative="1" as="geometry">
            <mxPoint x="745" y="228" as="targetPoint" />
          </mxGeometry>
        </mxCell>
        <mxCell id="P2xz3JzIOTPGkaxV-it4-36" value="" style="edgeStyle=orthogonalEdgeStyle;rounded=0;orthogonalLoop=1;jettySize=auto;html=1;" parent="1" source="P2xz3JzIOTPGkaxV-it4-34" target="P2xz3JzIOTPGkaxV-it4-33" edge="1">
          <mxGeometry relative="1" as="geometry" />
        </mxCell>
        <mxCell id="P2xz3JzIOTPGkaxV-it4-34" value="" style="ellipse;whiteSpace=wrap;html=1;aspect=fixed;" parent="1" vertex="1">
          <mxGeometry x="733.5" y="341.75" width="22.5" height="22.5" as="geometry" />
        </mxCell>
        <mxCell id="P2xz3JzIOTPGkaxV-it4-40" value="y" style="text;html=1;align=center;verticalAlign=middle;whiteSpace=wrap;rounded=0;" parent="1" vertex="1">
          <mxGeometry x="766" y="208" width="20" height="20" as="geometry" />
        </mxCell>
        <mxCell id="P2xz3JzIOTPGkaxV-it4-42" value="" style="edgeStyle=orthogonalEdgeStyle;rounded=0;orthogonalLoop=1;jettySize=auto;html=1;entryX=0.5;entryY=1;entryDx=0;entryDy=0;" parent="1" source="P2xz3JzIOTPGkaxV-it4-29" target="P2xz3JzIOTPGkaxV-it4-27" edge="1">
          <mxGeometry relative="1" as="geometry">
            <mxPoint x="626" y="408" as="sourcePoint" />
            <mxPoint x="676" y="408" as="targetPoint" />
          </mxGeometry>
        </mxCell>
        <mxCell id="P2xz3JzIOTPGkaxV-it4-41" value="$$\hat{x}$$" style="text;html=1;align=center;verticalAlign=middle;whiteSpace=wrap;rounded=0;" parent="1" vertex="1">
          <mxGeometry x="626" y="388" width="20" height="20" as="geometry" />
        </mxCell>
        <mxCell id="P2xz3JzIOTPGkaxV-it4-45" style="edgeStyle=orthogonalEdgeStyle;rounded=0;orthogonalLoop=1;jettySize=auto;html=1;exitX=1;exitY=0.5;exitDx=0;exitDy=0;endArrow=none;startFill=1;startArrow=classic;" parent="1" source="P2xz3JzIOTPGkaxV-it4-44" edge="1">
          <mxGeometry relative="1" as="geometry">
            <mxPoint x="656" y="408" as="targetPoint" />
          </mxGeometry>
        </mxCell>
        <mxCell id="P2xz3JzIOTPGkaxV-it4-46" style="edgeStyle=orthogonalEdgeStyle;rounded=0;orthogonalLoop=1;jettySize=auto;html=1;exitX=0;exitY=0.5;exitDx=0;exitDy=0;entryX=0.5;entryY=1;entryDx=0;entryDy=0;" parent="1" source="P2xz3JzIOTPGkaxV-it4-44" target="P2xz3JzIOTPGkaxV-it4-3" edge="1">
          <mxGeometry relative="1" as="geometry" />
        </mxCell>
        <mxCell id="P2xz3JzIOTPGkaxV-it4-44" value="-Ks" style="whiteSpace=wrap;html=1;aspect=fixed;" parent="1" vertex="1">
          <mxGeometry x="496" y="510" width="30" height="30" as="geometry" />
        </mxCell>
        <mxCell id="P2xz3JzIOTPGkaxV-it4-47" value="$$u$$" style="text;html=1;align=center;verticalAlign=middle;whiteSpace=wrap;rounded=0;" parent="1" vertex="1">
          <mxGeometry x="376" y="208" width="20" height="20" as="geometry" />
        </mxCell>
        <mxCell id="P2xz3JzIOTPGkaxV-it4-54" value="$$\hat{y}$$" style="text;html=1;align=center;verticalAlign=middle;whiteSpace=wrap;rounded=0;" parent="1" vertex="1">
          <mxGeometry x="774" y="386" width="20" height="20" as="geometry" />
        </mxCell>
        <mxCell id="2ekrf1Ir_0dS1Xj5fFay-2" value="" style="endArrow=classic;html=1;rounded=0;exitX=1;exitY=0.5;exitDx=0;exitDy=0;" edge="1" parent="1" source="P2xz3JzIOTPGkaxV-it4-1" target="2ekrf1Ir_0dS1Xj5fFay-1">
          <mxGeometry width="50" height="50" relative="1" as="geometry">
            <mxPoint x="92" y="228" as="sourcePoint" />
            <mxPoint x="257" y="228" as="targetPoint" />
          </mxGeometry>
        </mxCell>
        <mxCell id="2ekrf1Ir_0dS1Xj5fFay-1" value="" style="ellipse;whiteSpace=wrap;html=1;aspect=fixed;" vertex="1" parent="1">
          <mxGeometry x="104" y="216.75" width="22.5" height="22.5" as="geometry" />
        </mxCell>
        <mxCell id="2ekrf1Ir_0dS1Xj5fFay-4" value="" style="endArrow=classic;html=1;rounded=0;exitX=1;exitY=0.5;exitDx=0;exitDy=0;entryX=0;entryY=0.5;entryDx=0;entryDy=0;" edge="1" parent="1" source="2ekrf1Ir_0dS1Xj5fFay-8" target="2ekrf1Ir_0dS1Xj5fFay-3">
          <mxGeometry width="50" height="50" relative="1" as="geometry">
            <mxPoint x="222" y="228" as="sourcePoint" />
            <mxPoint x="260" y="228" as="targetPoint" />
          </mxGeometry>
        </mxCell>
        <mxCell id="2ekrf1Ir_0dS1Xj5fFay-3" value="-Ki" style="whiteSpace=wrap;html=1;aspect=fixed;" vertex="1" parent="1">
          <mxGeometry x="291" y="213" width="30" height="30" as="geometry" />
        </mxCell>
        <mxCell id="2ekrf1Ir_0dS1Xj5fFay-5" value="$$e$$" style="text;html=1;align=center;verticalAlign=middle;whiteSpace=wrap;rounded=0;" vertex="1" parent="1">
          <mxGeometry x="126.5" y="208" width="20" height="20" as="geometry" />
        </mxCell>
        <mxCell id="2ekrf1Ir_0dS1Xj5fFay-7" value="" style="endArrow=classic;html=1;rounded=0;exitX=1;exitY=0.5;exitDx=0;exitDy=0;" edge="1" parent="1" source="2ekrf1Ir_0dS1Xj5fFay-1" target="2ekrf1Ir_0dS1Xj5fFay-6">
          <mxGeometry width="50" height="50" relative="1" as="geometry">
            <mxPoint x="126" y="228" as="sourcePoint" />
            <mxPoint x="206" y="228" as="targetPoint" />
          </mxGeometry>
        </mxCell>
        <mxCell id="2ekrf1Ir_0dS1Xj5fFay-6" value="" style="ellipse;whiteSpace=wrap;html=1;aspect=fixed;" vertex="1" parent="1">
          <mxGeometry x="164" y="216.75" width="22.5" height="22.5" as="geometry" />
        </mxCell>
        <mxCell id="2ekrf1Ir_0dS1Xj5fFay-9" value="" style="endArrow=classic;html=1;rounded=0;exitX=1;exitY=0.5;exitDx=0;exitDy=0;" edge="1" parent="1" source="2ekrf1Ir_0dS1Xj5fFay-6" target="2ekrf1Ir_0dS1Xj5fFay-8">
          <mxGeometry width="50" height="50" relative="1" as="geometry">
            <mxPoint x="202" y="228" as="sourcePoint" />
            <mxPoint x="271" y="228" as="targetPoint" />
          </mxGeometry>
        </mxCell>
        <mxCell id="2ekrf1Ir_0dS1Xj5fFay-11" style="edgeStyle=orthogonalEdgeStyle;rounded=0;orthogonalLoop=1;jettySize=auto;html=1;exitX=1;exitY=0.5;exitDx=0;exitDy=0;entryX=0.5;entryY=1;entryDx=0;entryDy=0;" edge="1" parent="1" source="2ekrf1Ir_0dS1Xj5fFay-8" target="2ekrf1Ir_0dS1Xj5fFay-6">
          <mxGeometry relative="1" as="geometry">
            <Array as="points">
              <mxPoint x="264" y="228" />
              <mxPoint x="264" y="289" />
              <mxPoint x="175" y="289" />
            </Array>
          </mxGeometry>
        </mxCell>
        <mxCell id="2ekrf1Ir_0dS1Xj5fFay-8" value="Z&lt;sup&gt;-1&lt;/sup&gt;" style="triangle;whiteSpace=wrap;html=1;align=left;" vertex="1" parent="1">
          <mxGeometry x="204" y="208" width="40" height="40" as="geometry" />
        </mxCell>
        <mxCell id="2ekrf1Ir_0dS1Xj5fFay-12" value="$$v$$" style="text;html=1;align=center;verticalAlign=middle;whiteSpace=wrap;rounded=0;" vertex="1" parent="1">
          <mxGeometry x="244" y="208" width="20" height="20" as="geometry" />
        </mxCell>
        <mxCell id="2ekrf1Ir_0dS1Xj5fFay-13" value="$$x$$" style="text;html=1;align=center;verticalAlign=middle;whiteSpace=wrap;rounded=0;" vertex="1" parent="1">
          <mxGeometry x="626" y="208" width="20" height="20" as="geometry" />
        </mxCell>
        <mxCell id="2ekrf1Ir_0dS1Xj5fFay-20" value="" style="edgeStyle=orthogonalEdgeStyle;rounded=0;orthogonalLoop=1;jettySize=auto;html=1;exitX=0.5;exitY=0;exitDx=0;exitDy=0;entryX=0.5;entryY=1;entryDx=0;entryDy=0;" edge="1" parent="1" source="P2xz3JzIOTPGkaxV-it4-27" target="2ekrf1Ir_0dS1Xj5fFay-18">
          <mxGeometry relative="1" as="geometry">
            <mxPoint x="706" y="408" as="sourcePoint" />
            <mxPoint x="115" y="239" as="targetPoint" />
            <Array as="points">
              <mxPoint x="781" y="408" />
              <mxPoint x="781" y="560" />
              <mxPoint x="115" y="560" />
            </Array>
          </mxGeometry>
        </mxCell>
        <mxCell id="2ekrf1Ir_0dS1Xj5fFay-18" value="$$C_2$$" style="whiteSpace=wrap;html=1;aspect=fixed;" vertex="1" parent="1">
          <mxGeometry x="100.25" y="389.25" width="30" height="30" as="geometry" />
        </mxCell>
      </root>
    </mxGraphModel>
  </diagram>
</mxfile>
